<?xml version="1.0" encoding="utf-8"?>
<!-- Generator: Adobe Illustrator 24.0.2, SVG Export Plug-In . SVG Version: 6.00 Build 0)  -->
<svg version="1.1" id="Layer_1" xmlns="http://www.w3.org/2000/svg" xmlns:xlink="http://www.w3.org/1999/xlink" x="0px" y="0px"
	 viewBox="0 0 256 256" style="enable-background:new 0 0 256 256;" xml:space="preserve">
<style type="text/css">
	.st0{fill:none;}
	.st1{fill:#00D566;}
	.st2{fill:#FFFFFF;}
</style>
<polygon class="st0" points="0,0 30,0 30,0 "/>
<g>
	<path class="st1" d="M225.9,118.8c-3.8-3.9-7.7-8-9.2-11.5s-1.4-8.7-1.5-14c-0.1-9.7-0.3-20.8-8-28.5s-18.8-7.9-28.5-8
		c-5.3-0.1-10.7-0.2-14-1.5s-7.6-5.4-11.5-9.2C146.3,39.5,138.4,32,128,32s-18.3,7.5-25.2,14.1c-3.9,3.8-8,7.7-11.5,9.2
		s-8.7,1.4-14,1.5c-9.7,0.1-20.8,0.3-28.5,8s-7.9,18.8-8,28.5c-0.1,5.3-0.2,10.7-1.5,14s-5.4,7.6-9.2,11.5
		C23.5,125.7,16,133.6,16,144s7.5,18.3,14.1,25.2c3.8,3.9,7.7,8,9.2,11.5s1.4,8.7,1.5,14c0.1,9.7,0.3,20.8,8,28.5s18.8,7.9,28.5,8
		c5.3,0.1,10.7,0.2,14,1.5s7.6,5.4,11.5,9.2c6.9,6.6,14.8,14.1,25.2,14.1s18.3-7.5,25.2-14.1c3.9-3.8,8-7.7,11.5-9.2s8.7-1.4,14-1.5
		c9.7-0.1,20.8-0.3,28.5-8s7.9-18.8,8-28.5c0.1-5.3,0.2-10.7,1.5-14s5.4-7.6,9.2-11.5c6.6-6.9,14.1-14.8,14.1-25.2
		S232.5,125.7,225.9,118.8z"/>
	<path class="st2" d="M177.5,125.8l-58.6,56c-1.5,1.4-3.5,2.2-5.6,2.2c-2,0-4-0.8-5.5-2.2l-29.3-28c-3.3-2.9-3.7-8-0.8-11.3
		c2.9-3.3,8-3.7,11.3-0.8c0.2,0.1,0.3,0.3,0.5,0.5l23.8,22.7l53.2-50.7c3.3-2.9,8.4-2.6,11.3,0.8
		C180.5,118.1,180.4,122.8,177.5,125.8z"/>
</g>
</svg>
